<?xml version="1.0" encoding="UTF-8" standalone="no"?>
<!-- Created with Inkscape (http://www.inkscape.org/) -->

<svg
   width="144.84555mm"
   height="117.27639mm"
   viewBox="0 0 144.84555 117.27639"
   version="1.1"
   id="svg1"
   xmlns="http://www.w3.org/2000/svg"
   xmlns:svg="http://www.w3.org/2000/svg">
  <defs
     id="defs1">
    <clipPath
       clipPathUnits="userSpaceOnUse"
       id="clipPath9">
      <path
         d="M 0,158.74 H 272.126 V 0 H 0 Z"
         transform="translate(-123.777,-67.647104)"
         id="path9" />
    </clipPath>
    <clipPath
       clipPathUnits="userSpaceOnUse"
       id="clipPath11">
      <path
         d="M 0,158.74 H 272.126 V 0 H 0 Z"
         transform="translate(-130.4382,-67.647104)"
         id="path11" />
    </clipPath>
    <clipPath
       clipPathUnits="userSpaceOnUse"
       id="clipPath13">
      <path
         d="M 0,158.74 H 272.126 V 0 H 0 Z"
         transform="translate(-137.8083,-67.647104)"
         id="path13" />
    </clipPath>
    <clipPath
       clipPathUnits="userSpaceOnUse"
       id="clipPath15">
      <path
         d="M 0,158.74 H 272.126 V 0 H 0 Z"
         transform="translate(-139.18031,-63.738899)"
         id="path15" />
    </clipPath>
    <clipPath
       clipPathUnits="userSpaceOnUse"
       id="clipPath17">
      <path
         d="M 0,158.74 H 272.126 V 0 H 0 Z"
         transform="translate(-143.12471,-63.738899)"
         id="path17" />
    </clipPath>
    <clipPath
       clipPathUnits="userSpaceOnUse"
       id="clipPath19">
      <path
         d="M 0,158.74 H 272.126 V 0 H 0 Z"
         transform="translate(-151.6266,-63.738899)"
         id="path19" />
    </clipPath>
    <clipPath
       clipPathUnits="userSpaceOnUse"
       id="clipPath21">
      <path
         d="M 0,158.74 H 272.126 V 0 H 0 Z"
         transform="translate(-158.25851,-63.738899)"
         id="path21" />
    </clipPath>
    <clipPath
       clipPathUnits="userSpaceOnUse"
       id="clipPath23">
      <path
         d="M 0,158.74 H 272.126 V 0 H 0 Z"
         transform="translate(-123.777,-67.647104)"
         id="path23" />
    </clipPath>
    <clipPath
       clipPathUnits="userSpaceOnUse"
       id="clipPath25">
      <path
         d="M 0,158.74 H 272.126 V 0 H 0 Z"
         transform="translate(-130.4382,-67.647104)"
         id="path25" />
    </clipPath>
    <clipPath
       clipPathUnits="userSpaceOnUse"
       id="clipPath27">
      <path
         d="M 0,158.74 H 272.126 V 0 H 0 Z"
         transform="translate(-137.8092,-67.647104)"
         id="path27" />
    </clipPath>
    <clipPath
       clipPathUnits="userSpaceOnUse"
       id="clipPath29">
      <path
         d="M 0,158.74 H 272.126 V 0 H 0 Z"
         transform="translate(-139.1813,-63.738899)"
         id="path29" />
    </clipPath>
    <clipPath
       clipPathUnits="userSpaceOnUse"
       id="clipPath31">
      <path
         d="M 0,158.74 H 272.126 V 0 H 0 Z"
         transform="translate(-143.1257,-63.738899)"
         id="path31" />
    </clipPath>
    <clipPath
       clipPathUnits="userSpaceOnUse"
       id="clipPath33">
      <path
         d="M 0,158.74 H 272.126 V 0 H 0 Z"
         transform="translate(-151.6286,-63.738899)"
         id="path33" />
    </clipPath>
    <clipPath
       clipPathUnits="userSpaceOnUse"
       id="clipPath35">
      <path
         d="M 0,158.74 H 272.126 V 0 H 0 Z"
         transform="translate(-158.2604,-63.738899)"
         id="path35" />
    </clipPath>
    <clipPath
       clipPathUnits="userSpaceOnUse"
       id="clipPath77">
      <path
         d="M 0,158.74 H 272.126 V 0 H 0 Z"
         transform="translate(-152.8034,-88.728202)"
         id="path77" />
    </clipPath>
    <clipPath
       clipPathUnits="userSpaceOnUse"
       id="clipPath79">
      <path
         d="M 0,158.74 H 272.126 V 0 H 0 Z"
         transform="translate(-152.8034,-88.855602)"
         id="path79" />
    </clipPath>
  </defs>
  <g
     id="layer1"
     transform="translate(-5.6743326,-7.1792223)">
    <path
       id="path8"
       d="m 0,0 c 0,0.316 -0.214,0.475 -0.643,0.475 h -3.243 v -1.724 h 3.243 c 0.429,0 0.643,0.158 0.643,0.475 z m -3.886,-2.009 v -1.899 h -0.971 v 5.142 h 4.214 c 0.292,0 0.541,-0.03 0.746,-0.091 C 0.307,1.082 0.474,0.997 0.603,0.888 0.731,0.777 0.826,0.647 0.884,0.496 0.942,0.346 0.972,0.178 0.972,-0.008 v -0.76 C 0.972,-0.952 0.942,-1.12 0.884,-1.271 0.826,-1.422 0.731,-1.553 0.603,-1.662 0.474,-1.771 0.307,-1.856 0.103,-1.918 -0.102,-1.979 -0.351,-2.009 -0.643,-2.009 Z"
       style="fill:#ffffff;fill-opacity:1;fill-rule:nonzero;stroke:none"
       transform="matrix(2.6991699,0,0,-2.8066354,47.742506,98.525384)"
       clip-path="url(#clipPath9)" />
    <path
       id="path10"
       d="m 0,0 c 0,0.316 -0.214,0.475 -0.643,0.475 h -3.396 v -1.329 h 3.396 C -0.214,-0.854 0,-0.696 0,-0.38 Z m -0.124,-3.908 -1.205,2.294 h -2.71 v -2.294 h -0.972 v 5.142 h 4.368 c 0.292,0 0.541,-0.03 0.746,-0.091 C 0.308,1.082 0.474,0.997 0.603,0.888 0.732,0.777 0.826,0.647 0.884,0.496 0.942,0.346 0.972,0.178 0.972,-0.008 V -0.373 C 0.972,-0.704 0.874,-0.98 0.68,-1.202 0.485,-1.424 0.158,-1.556 -0.299,-1.6 l 1.212,-2.308 z"
       style="fill:#ffffff;fill-opacity:1;fill-rule:nonzero;stroke:none"
       transform="matrix(2.6991699,0,0,-2.8066354,65.722214,98.525384)"
       clip-path="url(#clipPath11)" />
    <path
       id="path12"
       d="M 0,0 C 0,0.316 -0.214,0.475 -0.643,0.475 H -4.039 C -4.468,0.475 -4.682,0.316 -4.682,0 v -2.674 c 0,-0.316 0.214,-0.474 0.643,-0.474 h 3.396 C -0.214,-3.148 0,-2.99 0,-2.674 Z m -4.039,-3.908 c -0.292,0 -0.54,0.03 -0.745,0.092 -0.204,0.06 -0.371,0.145 -0.5,0.255 -0.129,0.11 -0.223,0.24 -0.281,0.391 -0.059,0.15 -0.088,0.318 -0.088,0.504 v 2.658 c 0,0.186 0.029,0.354 0.088,0.504 0.058,0.151 0.152,0.281 0.281,0.392 0.129,0.109 0.296,0.194 0.5,0.255 0.205,0.061 0.453,0.091 0.745,0.091 h 3.396 c 0.292,0 0.54,-0.03 0.746,-0.091 C 0.307,1.082 0.474,0.997 0.603,0.888 0.731,0.777 0.825,0.647 0.884,0.496 0.942,0.346 0.972,0.178 0.972,-0.008 V -2.666 C 0.972,-2.852 0.942,-3.02 0.884,-3.17 0.825,-3.321 0.731,-3.451 0.603,-3.561 0.474,-3.671 0.307,-3.756 0.103,-3.816 -0.103,-3.878 -0.351,-3.908 -0.643,-3.908 Z"
       style="fill:#ffffff;fill-opacity:1;fill-rule:nonzero;stroke:none"
       transform="matrix(2.6991699,0,0,-2.8066354,85.615364,98.525384)"
       clip-path="url(#clipPath13)" />
    <path
       id="path14"
       d="m 0,0 v 0.76 h 1.41 c 0.224,0 0.386,0.028 0.486,0.084 0.099,0.055 0.15,0.139 0.15,0.252 V 5.143 H 3.017 V 1.096 C 3.017,0.936 2.986,0.788 2.926,0.654 2.864,0.52 2.77,0.404 2.641,0.307 2.512,0.21 2.345,0.134 2.141,0.081 1.936,0.027 1.692,0 1.41,0 Z"
       style="fill:#ffffff;fill-opacity:1;fill-rule:nonzero;stroke:none"
       transform="matrix(2.6991699,0,0,-2.8066354,89.318639,109.49428)"
       clip-path="url(#clipPath15)" />
    <path
       id="path16"
       d="M 0,0 V 5.143 H 5.288 V 4.383 H 0.972 V 3.098 H 5.069 V 2.338 H 0.972 V 0.76 H 5.288 V 0 Z"
       style="fill:#ffffff;fill-opacity:1;fill-rule:nonzero;stroke:none"
       transform="matrix(2.6991699,0,0,-2.8066354,99.965248,109.49428)"
       clip-path="url(#clipPath17)" />
    <path
       id="path18"
       d="m 0,0 v 4.383 h -2.695 v 0.76 H 3.594 V 4.383 H 0.972 V 0 Z"
       style="fill:#ffffff;fill-opacity:1;fill-rule:nonzero;stroke:none"
       transform="matrix(2.6991699,0,0,-2.8066354,122.9133,109.49428)"
       clip-path="url(#clipPath19)" />
    <path
       id="path20"
       d="m 0,0 v 4.383 h -2.695 v 0.76 H 3.594 V 4.383 H 0.972 V 0 Z"
       style="fill:#ffffff;fill-opacity:1;fill-rule:nonzero;stroke:none"
       transform="matrix(2.6991699,0,0,-2.8066354,140.81395,109.49428)"
       clip-path="url(#clipPath21)" />
    <path
       id="path22"
       d="m 0,0 c 0,0.316 -0.214,0.475 -0.643,0.475 h -3.243 v -1.724 h 3.243 c 0.429,0 0.643,0.158 0.643,0.475 z m -3.886,-2.009 v -1.899 h -0.971 v 5.142 h 4.214 c 0.292,0 0.541,-0.03 0.746,-0.091 C 0.307,1.082 0.474,0.997 0.603,0.888 0.731,0.777 0.826,0.647 0.884,0.496 0.942,0.346 0.972,0.178 0.972,-0.008 v -0.76 C 0.972,-0.952 0.942,-1.12 0.884,-1.271 0.826,-1.422 0.731,-1.553 0.603,-1.662 0.474,-1.771 0.307,-1.856 0.103,-1.918 -0.102,-1.979 -0.351,-2.009 -0.643,-2.009 Z"
       style="fill:#f63440;fill-opacity:1;fill-rule:nonzero;stroke:none"
       transform="matrix(2.6991699,0,0,-2.8066354,47.742506,98.525384)"
       clip-path="url(#clipPath23)" />
    <path
       id="path24"
       d="m 0,0 c 0,0.316 -0.214,0.475 -0.643,0.475 h -3.396 v -1.329 h 3.396 C -0.214,-0.854 0,-0.696 0,-0.38 Z m -0.124,-3.908 -1.205,2.294 h -2.71 v -2.294 h -0.972 v 5.142 h 4.368 c 0.292,0 0.541,-0.03 0.746,-0.091 C 0.308,1.082 0.474,0.997 0.603,0.888 0.732,0.777 0.826,0.647 0.884,0.496 0.942,0.346 0.972,0.178 0.972,-0.008 V -0.373 C 0.972,-0.704 0.874,-0.98 0.68,-1.202 0.485,-1.424 0.158,-1.556 -0.299,-1.6 l 1.212,-2.308 z"
       style="fill:#f63440;fill-opacity:1;fill-rule:nonzero;stroke:none"
       transform="matrix(2.6991699,0,0,-2.8066354,65.722214,98.525384)"
       clip-path="url(#clipPath25)" />
    <path
       id="path26"
       d="M 0,0 C 0,0.316 -0.215,0.475 -0.643,0.475 H -4.039 C -4.468,0.475 -4.683,0.316 -4.683,0 v -2.674 c 0,-0.316 0.215,-0.474 0.644,-0.474 h 3.396 C -0.215,-3.148 0,-2.99 0,-2.674 Z m -4.039,-3.908 c -0.293,0 -0.541,0.03 -0.745,0.092 -0.205,0.06 -0.372,0.145 -0.501,0.255 -0.129,0.11 -0.223,0.24 -0.281,0.391 -0.059,0.15 -0.087,0.318 -0.087,0.504 v 2.658 c 0,0.186 0.028,0.354 0.087,0.504 0.058,0.151 0.152,0.281 0.281,0.392 0.129,0.109 0.296,0.194 0.501,0.255 0.204,0.061 0.452,0.091 0.745,0.091 h 3.396 c 0.291,0 0.54,-0.03 0.745,-0.091 C 0.307,1.082 0.473,0.997 0.602,0.888 0.73,0.777 0.824,0.647 0.883,0.496 0.941,0.346 0.971,0.178 0.971,-0.008 V -2.666 C 0.971,-2.852 0.941,-3.02 0.883,-3.17 0.824,-3.321 0.73,-3.451 0.602,-3.561 0.473,-3.671 0.307,-3.756 0.102,-3.816 -0.103,-3.878 -0.352,-3.908 -0.643,-3.908 Z"
       style="fill:#f63440;fill-opacity:1;fill-rule:nonzero;stroke:none"
       transform="matrix(2.6991699,0,0,-2.8066354,85.617796,98.525384)"
       clip-path="url(#clipPath27)" />
    <path
       id="path28"
       d="m 0,0 v 0.76 h 1.41 c 0.224,0 0.386,0.028 0.486,0.084 0.099,0.055 0.15,0.139 0.15,0.252 V 5.143 H 3.017 V 1.096 C 3.017,0.936 2.986,0.788 2.926,0.654 2.864,0.52 2.77,0.404 2.641,0.307 2.512,0.21 2.345,0.134 2.141,0.081 1.936,0.027 1.692,0 1.41,0 Z"
       style="fill:#f63440;fill-opacity:1;fill-rule:nonzero;stroke:none"
       transform="matrix(2.6991699,0,0,-2.8066354,89.321333,109.49428)"
       clip-path="url(#clipPath29)" />
    <path
       id="path30"
       d="M 0,0 V 5.143 H 5.288 V 4.383 H 0.972 V 3.098 H 5.069 V 2.338 H 0.972 V 0.76 H 5.288 V 0 Z"
       style="fill:#f63440;fill-opacity:1;fill-rule:nonzero;stroke:none"
       transform="matrix(2.6991699,0,0,-2.8066354,99.967941,109.49428)"
       clip-path="url(#clipPath31)" />
    <path
       id="path32"
       d="m 0,0 v 4.383 h -2.695 v 0.76 H 3.594 V 4.383 H 0.972 V 0 Z"
       style="fill:#f63440;fill-opacity:1;fill-rule:nonzero;stroke:none"
       transform="matrix(2.6991699,0,0,-2.8066354,122.91871,109.49428)"
       clip-path="url(#clipPath33)" />
    <path
       id="path34"
       d="m 0,0 v 4.383 h -2.695 v 0.76 H 3.594 V 4.383 H 0.972 V 0 Z"
       style="fill:#f63440;fill-opacity:1;fill-rule:nonzero;stroke:none"
       transform="matrix(2.6991699,0,0,-2.8066354,140.81907,109.49428)"
       clip-path="url(#clipPath35)" />
    <path
       id="path76"
       d="m 0,0 c 0,2.907 -1.967,4.361 -5.902,4.361 h -29.787 v -15.834 h 29.787 c 3.935,0 5.902,1.454 5.902,4.362 z M -35.689,-18.449 V -30.32 h -8.923 v 41.658 h 38.71 c 2.683,0 4.965,-0.28 6.841,-0.838 C 2.818,9.94 4.35,9.158 5.535,8.151 6.721,7.145 7.582,5.948 8.119,4.562 8.656,3.175 8.924,1.632 8.924,-0.067 v -6.977 c 0,-1.701 -0.268,-3.244 -0.805,-4.63 -0.537,-1.387 -1.398,-2.583 -2.584,-3.589 -1.185,-1.007 -2.717,-1.79 -4.596,-2.348 -1.876,-0.56 -4.158,-0.838 -6.841,-0.838 z"
       style="fill:#be1622;fill-opacity:1;fill-rule:nonzero;stroke:none"
       transform="matrix(2.6991699,0,0,-2.8066354,126.0897,39.358421)"
       clip-path="url(#clipPath77)" />
    <path
       id="path78"
       d="m 0,0 c 0,2.907 -1.967,4.361 -5.902,4.361 h -29.787 v -15.833 h 29.787 c 3.935,0 5.902,1.453 5.902,4.361 z M -35.689,-18.449 V -30.32 h -8.923 v 41.658 h 38.71 c 2.683,0 4.965,-0.28 6.841,-0.838 C 2.818,9.94 4.35,9.158 5.535,8.151 6.721,7.145 7.582,5.948 8.119,4.562 8.656,3.175 8.924,1.632 8.924,-0.067 v -6.977 c 0,-1.701 -0.268,-3.244 -0.805,-4.629 -0.537,-1.387 -1.398,-2.583 -2.584,-3.589 -1.185,-1.007 -2.717,-1.79 -4.596,-2.349 -1.876,-0.559 -4.158,-0.838 -6.841,-0.838 z"
       style="fill:#f63440;fill-opacity:1;fill-rule:nonzero;stroke:none"
       transform="matrix(2.6991699,0,0,-2.8066354,126.0897,39.000854)"
       clip-path="url(#clipPath79)" />
  </g>
</svg>
